<?xml version="1.0" encoding="UTF-8"?>
<svg id="Layer_1" data-name="Layer 1" xmlns="http://www.w3.org/2000/svg" viewBox="0 0 600 190.57">
  <defs>
    <style>
      .cls-1 {
        fill: #cb2e25;
      }
    </style>
  </defs>
  <path class="cls-1" d="M73.36,84.28c-.22,.01-.33,.02-.54,.03-3.61,32.49-7.19,64.97-10.75,97.47-13.67,1.71-27.32,3.57-40.95,5.57C14,124.91,6.96,62.46,0,0H29.13c5.17,48.38,10.37,96.75,15.62,145.12,.22-.02,.33-.03,.54-.06C50.01,96.7,54.79,48.35,59.62,0h28.86c4.77,46.9,9.58,93.79,14.42,140.69,.22-.02,.33-.03,.54-.04,5.13-46.89,10.31-93.77,15.52-140.64h26.13c-7.27,58.36-14.47,116.72-21.59,175.1-13.25,1.22-26.49,2.59-39.71,4.09-3.5-31.63-6.97-63.27-10.44-94.91Z"/>
  <path class="cls-1" d="M189.89,71.7c13.71-.33,27.43-.6,41.15-.81-.01,9.61-.02,14.42-.03,24.03-13.72,.28-27.44,.64-41.16,1.09-.03,16.61-.06,33.22-.09,49.82,17.27-.81,34.54-1.46,51.83-1.96,0,9.59-.01,14.39-.02,23.98-27.31,.92-54.58,2.33-81.84,4.25,.11-57.37,.23-114.73,.34-172.1h81.67c0,9.59-.01,14.39-.02,23.98-17.25,.08-34.49,.19-51.74,.33-.03,15.8-.05,31.6-.08,47.39Z"/>
  <path class="cls-1" d="M290.19,74.19c12.9-.03,25.81,0,38.71,.09,0,9.55,0,14.33,.01,23.88-12.91-.11-25.82-.15-38.73-.11,0,22.98,0,45.96-.01,68.94-10.01,.04-20.03,.17-30.04,.39,.04-55.79,.08-111.58,.12-167.37h79.22c0,9.56,.01,14.35,.02,23.91-16.43-.05-32.86-.07-49.3-.05,0,16.78,0,33.56,0,50.33Z"/>
  <path class="cls-1" d="M353.9,0h29.95c.07,48.23,.14,96.46,.21,144.69,16.46,.63,32.91,1.41,49.35,2.4,.02,9.81,.03,14.71,.05,24.52-26.45-1.76-52.89-3.05-79.39-3.89-.05-55.91-.11-111.82-.16-167.72Z"/>
  <path class="cls-1" d="M446.19,0h29.95c.12,58.37,.24,116.73,.36,175.1-9.98-.93-19.97-1.77-29.96-2.53-.12-57.52-.23-115.04-.35-172.57Z"/>
  <path class="cls-1" d="M597.82,0c-10.23,30.11-20.64,60.16-31.22,90.15,11.41,33.39,22.54,66.86,33.4,100.43-10.45-1.67-20.93-3.24-31.41-4.71-7.95-25.21-16.03-50.38-24.24-75.52-.22-.02-.33-.03-.54-.04-8.02,23.12-16.14,46.2-24.34,69.26-9.33-1.08-18.66-2.09-28.01-3.02,11.25-29.62,22.35-59.29,33.28-89.02-10.32-29.23-20.81-58.41-31.46-87.52h31.03c7.56,22.44,15.04,44.91,22.41,67.42,.22,.01,.33,.02,.54,.03,7.68-22.45,15.27-44.93,22.78-67.45h27.77Z"/>
</svg>